<?xml version="1.0" encoding="UTF-8" standalone="no"?>
<!-- Created with Inkscape (http://www.inkscape.org/) -->

<svg
   width="99.689957mm"
   height="39.544884mm"
   viewBox="0 0 99.689957 39.544884"
   version="1.1"
   id="svg5"
   xml:space="preserve"
   xmlns:inkscape="http://www.inkscape.org/namespaces/inkscape"
   xmlns:sodipodi="http://sodipodi.sourceforge.net/DTD/sodipodi-0.dtd"
   xmlns="http://www.w3.org/2000/svg"
   xmlns:svg="http://www.w3.org/2000/svg"><sodipodi:namedview
     id="namedview7"
     pagecolor="#ffffff"
     bordercolor="#cccccc"
     borderopacity="1"
     inkscape:showpageshadow="0"
     inkscape:pageopacity="1"
     inkscape:pagecheckerboard="0"
     inkscape:deskcolor="#d1d1d1"
     inkscape:document-units="mm"
     showgrid="false" /><defs
     id="defs2" /><path
     d="M -27.582205,-120.97769 H 254.81499 V 85.219514 H -27.582205 Z"
     style="fill:#fefefe;fill-opacity:1;fill-rule:evenodd;stroke:none;stroke-width:0.352778"
     id="path158" /><g
     id="g228"
     transform="matrix(0.35277776,0,0,-0.35277778,-27.582205,85.219514)"><g
       id="g230"><path
         d="m 133.6544,226.6863 64.0573,0.2245 c 2.3006,0.007 4.2973,0.6361 6.1829,1.6438 2.1189,1.1311 4.267,2.8489 6.5461,4.7526 6.7314,5.6208 14.146,8.2593 20.9894,8.2599 3.6315,6e-4 7.088,-0.7316 10.1991,-2.1467 3.1776,-1.4457 5.9969,-3.587 8.2837,-6.3706 3.7493,-4.5629 5.4861,-9.8756 5.4864,-17.5671 6e-4,-7.4013 -1.9327,-12.8027 -5.0865,-17.2511 -2.1373,-3.0181 -4.8376,-5.3079 -7.9577,-6.8409 -3.0467,-1.4978 -6.4922,-2.2612 -10.1976,-2.2612 -6.7102,0 -14.1497,1.9851 -21.5558,7.3205 l 0.007,0.008 h -0.0181 c -7.7638,5.5936 -9.459,6.8142 -19.7493,6.8142 h -27.5275 c -5.953,0 -10.0216,4.9819 -12.5853,10.6419 h 40.1128 c 13.6239,0 15.8139,-1.5787 25.8509,-8.809 l -0.006,-0.009 h 0.0178 c 5.5775,-4.0175 10.8754,-5.3659 15.4537,-5.3659 2.0486,0 3.9348,0.4127 5.5797,1.2211 1.5718,0.7725 2.9293,1.9216 3.9997,3.4311 1.9281,2.7207 3.1479,6.0398 3.1479,11.0999 0,5.0301 -0.832,8.0387 -3.0946,10.792 -1.2453,1.5157 -2.7743,2.6793 -4.491,3.4603 -1.7849,0.8121 -3.7749,1.2316 -5.8691,1.2316 -4.4801,0 -9.5029,-1.8688 -14.2693,-5.849 -2.7088,-2.2626 -5.3243,-4.3364 -8.3602,-5.9578 -3.2675,-1.7464 -6.8244,-2.8358 -11.0889,-2.8497 l -51.5253,-0.1823 c -5.9531,-0.0207 -9.9684,4.8986 -12.532,10.5585"
         style="fill:#92b32e;fill-opacity:1;fill-rule:nonzero;stroke:none"
         id="path232" /><path
         d="m 305.3024,226.6863 -64.0573,0.2245 c -2.3003,0.007 -4.2971,0.6361 -6.183,1.6438 -2.1186,1.1311 -4.267,2.8489 -6.5457,4.7526 -6.7315,5.6208 -14.146,8.2593 -20.9894,8.2599 -3.6315,6e-4 -7.0881,-0.7316 -10.1991,-2.1467 -3.1776,-1.4457 -5.997,-3.587 -8.284,-6.3706 -3.7491,-4.5629 -5.4859,-9.8756 -5.4864,-17.5671 -6e-4,-7.4013 1.9326,-12.8027 5.0865,-17.2511 2.1373,-3.0181 4.8379,-5.3079 7.958,-6.8409 3.0463,-1.4978 6.4919,-2.2612 10.1973,-2.2612 6.7102,0 14.1497,1.9851 21.5558,7.3205 l -0.006,0.008 h 0.0178 c 7.7638,5.5936 9.4589,6.8142 19.7493,6.8142 h 27.5275 c 5.953,0 10.0216,4.9819 12.5853,10.6419 h -40.1128 c -13.6239,0 -15.814,-1.5787 -25.8509,-8.809 l 0.006,-0.009 h -0.0182 c -5.5774,-4.0175 -10.8754,-5.3659 -15.4536,-5.3659 -2.0486,0 -3.9348,0.4127 -5.5794,1.2211 -1.5721,0.7725 -2.9293,1.9216 -4,3.4311 -1.9278,2.7207 -3.1479,6.0398 -3.1479,11.0999 0,5.0301 0.8323,8.0387 3.0946,10.792 1.2453,1.5157 2.7746,2.6793 4.4912,3.4603 1.7847,0.8121 3.7746,1.2316 5.8692,1.2316 4.4798,0 9.5025,-1.8688 14.269,-5.849 2.7088,-2.2626 5.3243,-4.3364 8.3602,-5.9578 3.2675,-1.7464 6.8244,-2.8358 11.0889,-2.8497 l 51.5256,-0.1823 c 5.953,-0.0207 9.968,4.8986 12.5317,10.5585"
         style="fill:#1e4d78;fill-opacity:1;fill-rule:nonzero;stroke:none"
         id="path234" /><path
         d="m 199.3873,202.6307 c -2.1796,0.4785 -4.79,0.6417 -8.5468,0.6417 h -5.4618 c -1.3901,3.3446 -2.0622,6.8843 -2.2045,10.6424 h 7.6663 c 1.3329,0 2.5549,-0.0153 3.6873,-0.0496 0.1877,-3.3488 1.0117,-6.3992 3.0289,-9.244 0.5298,-0.747 1.1409,-1.4145 1.8306,-1.9905"
         style="fill:#92b32e;fill-opacity:1;fill-rule:nonzero;stroke:none"
         id="path236" /><path
         d="m 255.3831,214.327 c -0.1261,-4.4972 -0.9935,-8.2335 -2.4273,-11.4667 h -4.8395 c -3.6712,0 -6.2147,-0.1446 -8.36,-0.6106 0.7365,0.6035 1.4003,1.3156 1.9803,2.1331 1.7731,2.5013 2.9472,5.5085 3.1249,9.9096 1.01,0.0241 2.0891,0.0346 3.2548,0.0346 z"
         style="fill:#92b32e;fill-opacity:1;fill-rule:nonzero;stroke:none"
         id="path238" /><path
         d="m 253.3941,227.2802 c 1.3223,-3.2071 1.9709,-6.9038 2.0041,-11.4321 l -10.5149,0.0371 c -0.0442,4.7897 -0.8917,7.7105 -3.0928,10.3895 -0.3076,0.3742 -0.6319,0.7268 -0.9726,1.0574 0.1417,-0.006 0.2846,-0.008 0.4286,-0.009 l 12.1476,-0.0428 z"
         style="fill:#92b32e;fill-opacity:1;fill-rule:nonzero;stroke:none"
         id="path240" /><path
         d="m 184.9589,226.866 12.7528,0.0448 c 0.2038,6e-4 0.4051,0.006 0.6041,0.0165 -0.2909,-0.2894 -0.5681,-0.5944 -0.8309,-0.9145 -2.3975,-2.9188 -2.9318,-6.0922 -2.9942,-9.714 l -11.3394,-0.0397 c 0.0578,3.7959 0.5482,7.3159 1.8076,10.6069"
         style="fill:#92b32e;fill-opacity:1;fill-rule:nonzero;stroke:none"
         id="path242" /></g><path
       d="m 111.2581,175.1355 c -0.6891,-1.5925 -1.0423,-3.7347 -1.0717,-6.5926 l 0.002,-0.0666 v -26.9419 h -0.003 c 0.0153,-0.6386 0.2852,-1.2175 0.7115,-1.6364 0.4255,-0.4173 1.012,-0.6752 1.6617,-0.6752 h 0.6352 v -0.003 c 0.4555,0 0.8291,-0.3654 0.8362,-0.8229 l 0.007,-0.4269 c 0.003,-0.0289 0.005,-0.0584 0.005,-0.0879 0,-0.4637 -0.3759,-0.8396 -0.8394,-0.8396 h -10.9754 v 0.003 h -0.0134 c -0.4617,0.007 -0.8302,0.3878 -0.8229,0.8495 l 0.007,0.4283 -0.002,0.0598 c 0,0.4638 0.3762,0.8397 0.8397,0.8397 h 0.6352 c 0.6355,0 1.2104,0.2466 1.6364,0.6471 0.4244,0.3989 0.7062,0.953 0.7592,1.5701 v 12.2035 H 87.5521 v -12.2511 c 0,-4.0102 -0.7773,-6.6815 -2.1759,-8.5144 -1.4269,-1.8689 -3.4458,-2.8182 -5.9164,-3.3866 v 9e-4 c -0.3541,-0.0808 -0.7334,0.0762 -0.9185,0.4093 l -0.2508,0.4516 5e-4,5e-4 -0.0102,0.019 c -0.2137,0.4091 -0.0547,0.9145 0.3544,1.1279 1.3081,0.6854 2.2889,1.7096 2.9443,3.2327 0.6897,1.6038 1.0332,3.7661 1.0332,6.6591 v 27.9697 h 0.0031 c -0.0206,0.6302 -0.2914,1.2011 -0.716,1.6147 -0.4263,0.4149 -1.0117,0.6721 -1.6577,0.6721 h -0.6352 v 0.003 c -0.4556,0 -0.8292,0.3653 -0.8362,0.8228 l -0.0066,0.4269 c -0.0034,0.029 -0.0048,0.0584 -0.0048,0.0879 0,0.4638 0.3759,0.8396 0.8394,0.8396 h 10.9754 v -0.003 h 0.0133 c 0.4618,-0.007 0.8303,-0.3877 0.8229,-0.8495 l -0.0065,-0.4272 0.002,-0.0609 c 0,-0.4638 -0.3762,-0.8396 -0.8396,-0.8396 h -0.6355 c -0.6472,0 -1.2326,-0.2546 -1.6589,-0.6679 -0.417,-0.4039 -0.6868,-0.9578 -0.7206,-1.5718 l 9e-4,-0.0386 v -12.5435 h 17.7307 v 11.6492 h 0.003 c 0.008,4.013 0.7844,6.6844 2.1799,8.5139 1.4249,1.8691 3.4423,2.819 5.9173,3.3868 v -8e-4 c 0.354,0.0807 0.7333,-0.0763 0.9184,-0.4094 l 0.2509,-0.4512 -6e-4,-6e-4 0.01,-0.019 c 0.2138,-0.4088 0.055,-0.9142 -0.354,-1.1279 -1.3116,-0.6868 -2.2916,-1.7116 -2.9498,-3.2326 z m 27.1715,-33.2275 c 1.2323,1.0474 2.0617,2.5696 2.7865,4.3518 0.1151,0.3265 0.4263,0.5612 0.7926,0.5612 h 0.5014 v -0.003 c 0.0933,0 0.1891,-0.0156 0.2823,-0.049 0.4346,-0.1556 0.6605,-0.635 0.5049,-1.0695 l -2.8928,-8.0311 c -0.0941,-0.3603 -0.422,-0.6259 -0.8118,-0.6259 h -20.7978 v 0.003 h -0.0133 c -0.4615,0.007 -0.83,0.3878 -0.8229,0.8495 l 0.007,0.4283 -0.002,0.0598 c 0,0.4638 0.3758,0.8397 0.8396,0.8397 h 0.6347 c 0.644,0 1.2265,0.2531 1.6526,0.6624 l 0.017,0.0176 c 0.4155,0.4071 0.6834,0.9646 0.7106,1.5826 l -0.001,0.049 v 28.0871 c 0,0.5386 -0.2594,1.0262 -0.6596,1.3845 -0.4451,0.3988 -1.0599,0.6429 -1.7019,0.6429 h -0.6356 c -0.4634,0 -0.8393,0.3758 -0.8393,0.8396 v 0.5014 c 0,0.4638 0.3759,0.8396 0.8393,0.8396 h 14.6534 v -0.003 c 0.9729,0.0117 2.1257,0.1276 3.1689,0.2866 1.0647,0.1624 1.976,0.3623 2.4219,0.5346 0.1157,0.0598 0.2472,0.0936 0.3861,0.0936 0.4635,0 0.8396,-0.3759 0.8396,-0.8394 v -1.4632 -0.8442 -4.0206 c 0,-0.4635 -0.3761,-0.8396 -0.8396,-0.8396 h -0.5017 c -0.4635,0 -0.8394,0.3761 -0.8394,0.8396 v 0.8943 c 0,0.5735 -0.2214,1.0922 -0.5811,1.4754 -0.356,0.3793 -0.8478,0.6305 -1.3941,0.6775 h -9.3858 V 156.794 h 7.6369 v -0.003 c 0.4388,0.0113 0.837,0.197 1.1253,0.4898 0.288,0.2923 0.4675,0.6948 0.4675,1.1392 v 0.7444 c 0,0.4635 0.3761,0.8396 0.8396,0.8396 h 0.4844 c 0.4638,0 0.8396,-0.3761 0.8396,-0.8396 v -7.9333 c 0,-0.4635 -0.3758,-0.8396 -0.8396,-0.8396 h -0.4844 c -0.4635,0 -0.8396,0.3761 -0.8396,0.8396 v 0.7444 c 0,0.4379 -0.1741,0.8362 -0.455,1.1279 -0.2721,0.2837 -0.6455,0.4697 -1.0562,0.4989 l -0.0235,-6e-4 h -7.695 v -13.3421 h 6.3576 c 2.4372,0 4.1043,0.6114 5.3237,1.6486 z m 7.9756,30.5671 -0.007,0.4264 c -0.003,0.0292 -0.005,0.0587 -0.005,0.0884 0,0.4638 0.3759,0.8396 0.8396,0.8396 h 13.525 c 3.2658,0 5.9167,-0.9785 7.7652,-2.7561 1.8575,-1.7855 2.88,-4.3503 2.88,-7.5124 0,-2.6957 -1.0562,-5.3552 -2.7913,-7.3029 -1.1942,-1.341 -2.7119,-2.3504 -4.4325,-2.8159 l 0.1423,-0.138 c 0.7276,-0.7158 1.4493,-1.5792 1.9953,-2.3517 0.0119,-0.017 4.2999,-6.1262 6.2036,-8.2102 0.9629,-1.0548 1.8799,-1.952 2.8789,-2.5682 0.9414,-0.5811 1.9851,-0.9309 3.2598,-0.9536 l 0.0627,0.002 c 0.1808,0 0.3481,-0.0576 0.485,-0.1548 0.1372,0.0972 0.3047,0.1548 0.485,0.1548 h 0.6349 c 0.6458,0 1.2311,0.2571 1.6577,0.6721 0.4153,0.4045 0.6835,0.9603 0.7138,1.5738 l -9e-4,0.0408 v 27.8277 h 0.003 c -0.0153,0.6392 -0.2852,1.2175 -0.7115,1.6364 -0.4255,0.4173 -1.0123,0.6753 -1.662,0.6753 h -0.6349 v 0.003 c -0.4556,0 -0.8292,0.3653 -0.8362,0.8228 l -0.007,0.4264 c -0.003,0.0292 -0.005,0.0587 -0.005,0.0884 0,0.4638 0.3759,0.8396 0.8397,0.8396 h 13.5249 c 3.2658,0 5.9168,-0.9785 7.7652,-2.7561 1.8576,-1.7855 2.88,-4.3503 2.88,-7.5124 0,-2.6957 -1.0561,-5.3552 -2.7912,-7.3029 -1.1943,-1.341 -2.7119,-2.3504 -4.4326,-2.8159 l 0.1423,-0.138 c 0.7277,-0.7158 1.4494,-1.5792 1.9953,-2.3517 0.0119,-0.017 4.2999,-6.1262 6.2037,-8.2102 0.9629,-1.0548 1.8799,-1.952 2.8788,-2.5682 0.6358,-0.3926 1.3193,-0.6795 2.088,-0.8314 0.4074,0.1119 0.8215,0.3033 1.2133,0.5848 0.602,0.4328 1.1539,1.0763 1.559,1.963 l 11.3358,26.9047 0.0266,0.0689 c 0.005,0.011 1.7833,3.9265 1.7833,4.828 0,0.4634 0.3761,0.8396 0.8396,0.8396 h 0.4516 v -0.001 c 0.3285,-6e-4 0.6406,-0.1948 0.7738,-0.5171 l 13.4082,-32.1491 -6e-4,-3e-4 c 0.4037,-0.8731 0.9513,-1.5077 1.5477,-1.9346 0.6795,-0.4865 1.4259,-0.7064 2.0926,-0.7064 h 0.4178 c 0.4637,0 0.8396,-0.3759 0.8396,-0.8397 v -0.5014 c 0,-0.4637 -0.3759,-0.8396 -0.8396,-0.8396 h -11.2932 c -0.4635,0 -0.8397,0.3759 -0.8397,0.8396 v 0.5014 c 0,0.4638 0.3762,0.8397 0.8397,0.8397 h 0.4345 c 0.1684,0 0.3359,0.0289 0.4893,0.0847 0.2228,0.0814 0.4229,0.2189 0.5635,0.4065 0.1369,0.1831 0.2228,0.4292 0.2228,0.7367 0,0.2356 -0.0488,0.5026 -0.1568,0.7986 l 0.001,5e-4 -2.9937,7.9798 h -12.359 l -3.1335,-7.9888 -0.008,-0.0219 c -0.1023,-0.2877 -0.1486,-0.5442 -0.1486,-0.7687 0,-0.3065 0.0876,-0.5539 0.228,-0.7396 0.1414,-0.1876 0.3449,-0.3251 0.5706,-0.4056 0.1522,-0.0542 0.314,-0.0822 0.4736,-0.0822 h 0.4431 c 0.4635,0 0.8396,-0.3759 0.8396,-0.8397 v -0.5014 c 0,-0.4637 -0.3761,-0.8396 -0.8396,-0.8396 h -7.5484 -2.5495 -0.2009 c -2.511,0 -4.4499,0.682 -5.9749,1.618 -1.5046,0.9238 -2.5812,2.0784 -3.407,3.0657 l -0.0158,0.0184 c -0.3442,0.415 -2.2774,3.1912 -3.9788,5.635 -1.3206,1.8961 -2.5035,3.5943 -2.6367,3.759 l 0.001,3e-4 -0.008,0.009 c -0.6216,0.7854 -1.2812,1.5922 -1.9879,2.1889 -0.6174,0.5213 -1.2702,0.8753 -1.9624,0.8753 -0.4082,0 -0.7487,0.2917 -0.8238,0.6781 V 141.534 h -0.003 c 0.0153,-0.6392 0.2852,-1.2175 0.7115,-1.6364 0.4255,-0.4173 1.0122,-0.6752 1.6619,-0.6752 h 0.6353 v -0.003 c 0.4555,0 0.8291,-0.3654 0.8362,-0.8229 l 0.007,-0.4269 c 0.003,-0.0289 0.005,-0.0584 0.005,-0.0879 0,-0.4637 -0.3761,-0.8396 -0.8396,-0.8396 h -10.9587 v 0.003 h -0.0134 c -0.1729,0.003 -0.3327,0.0575 -0.4646,0.1496 -0.1366,-0.096 -0.3035,-0.153 -0.4835,-0.153 h -2.7505 c -2.5109,0 -4.4498,0.682 -5.9749,1.618 -1.5046,0.9238 -2.5812,2.0784 -3.4069,3.0657 l -0.0159,0.0184 c -0.3441,0.415 -2.2774,3.1912 -3.9787,5.635 -1.3207,1.8961 -2.5033,3.5943 -2.6368,3.759 l 0.001,3e-4 -0.008,0.009 c -0.6217,0.7854 -1.2813,1.5922 -1.988,2.1889 -0.6173,0.5213 -1.2702,0.8753 -1.9624,0.8753 -0.4082,0 -0.7486,0.2917 -0.8237,0.6781 v -13.3555 h -0.003 c 0.0153,-0.6392 0.2852,-1.2175 0.7115,-1.6364 0.4255,-0.4173 1.0123,-0.6752 1.662,-0.6752 h 0.6352 v -0.003 c 0.4556,0 0.8292,-0.3654 0.8363,-0.8229 l 0.007,-0.4269 c 0.003,-0.0289 0.005,-0.0584 0.005,-0.0879 0,-0.4637 -0.3762,-0.8396 -0.8396,-0.8396 h -10.9588 v 0.003 h -0.0133 c -0.4618,0.007 -0.83,0.3878 -0.8229,0.8495 l 0.007,0.4283 -0.002,0.0598 c 0,0.4638 0.3762,0.8397 0.8396,0.8397 h 0.635 c 0.6457,0 1.2311,0.2571 1.6577,0.6721 0.4153,0.4045 0.6834,0.9603 0.7137,1.5738 l -8e-4,0.0408 v 27.8277 h 0.003 c -0.0153,0.6392 -0.2851,1.2175 -0.7115,1.6364 -0.4254,0.4173 -1.0122,0.6753 -1.6619,0.6753 h -0.635 v 0.003 c -0.4555,0 -0.8291,0.3653 -0.8362,0.8228 z m 8.7724,-1.8824 V 155.681 c 0.0751,0.3864 0.4155,0.6781 0.8237,0.6781 0.003,0 1.4247,-0.0199 2.6272,0.0133 h 0.003 c 1.2107,0.0306 2.6932,0.1871 4.0067,0.8444 1.27,0.6364 2.4146,1.77 3.0453,3.7763 l 9e-4,-2e-4 c 0.0926,0.3027 0.1703,0.7282 0.2213,1.2084 0.0519,0.4881 0.0746,1.0179 0.0596,1.5205 -0.0573,2.0755 -0.6146,3.7632 -1.5721,4.9396 -0.9196,1.1299 -2.2326,1.798 -3.8438,1.887 l -0.0133,6e-4 c -1.7629,0.0975 -3.7418,0.0675 -5.0029,0.049 l -0.356,-0.005 z m 32.4504,0 V 155.681 c 0.0751,0.3864 0.4156,0.6781 0.8238,0.6781 0.003,0 1.4247,-0.0199 2.6271,0.0133 h 0.003 c 1.2107,0.0306 2.6932,0.1871 4.0068,0.8444 1.2699,0.6364 2.4146,1.77 3.0453,3.7763 l 8e-4,-2e-4 c 0.0927,0.3027 0.1704,0.7282 0.2214,1.2084 0.0519,0.4881 0.0745,1.0179 0.0592,1.5205 -0.0569,2.0755 -0.6142,3.7632 -1.5718,4.9396 -0.9195,1.1299 -2.2325,1.798 -3.8437,1.887 l -0.0134,6e-4 c -1.7628,0.0975 -3.7417,0.0675 -5.0028,0.049 l -0.3561,-0.005 z m 38.9761,-5.256 -5.0661,-12.9232 h 9.9176 z m 29.9138,5.6435 c -0.4153,-0.4031 -0.6826,-0.9562 -0.7132,-1.5687 l 0.001,-0.0409 v -13.6865 c 0.0281,0.0635 0.0646,0.1245 0.11,0.1814 l 11.8324,14.8329 5e-4,6e-4 0.003,0.004 c 0.131,0.1755 0.1914,0.343 0.1914,0.487 0,0.0592 -0.009,0.1137 -0.0267,0.1607 l -0.0187,0.0357 c -0.0298,0.0604 -0.076,0.1163 -0.1341,0.1605 -0.1295,0.0995 -0.3231,0.1604 -0.5683,0.1604 h -0.4845 c -0.4634,0 -0.8396,0.3759 -0.8396,0.8394 v 0.443 c 0,0.4638 0.3762,0.8396 0.8396,0.8396 h 10.5991 c 0.4634,0 0.8396,-0.3758 0.8396,-0.8396 v -0.451 c 0,-0.4637 -0.3762,-0.8396 -0.8396,-0.8396 h -0.2257 v 0.003 c -0.9442,-0.004 -1.8484,-0.1996 -2.6586,-0.5516 -0.8175,-0.3555 -1.5409,-0.8742 -2.1149,-1.5188 l -0.001,0.001 -11.3429,-13.0836 13.2072,-15.5157 0.01,-0.009 c 0.6137,-0.6137 1.2067,-1.0548 1.859,-1.3422 0.6403,-0.2824 1.3598,-0.4295 2.2342,-0.4607 l 0.0446,9e-4 c 0.4637,0 0.8396,-0.3759 0.8396,-0.8397 v -0.4929 c 0,-0.4637 -0.3759,-0.8396 -0.8396,-0.8396 h -2.115 c -0.7429,0 -2.1288,0.0405 -3.6561,0.4411 -1.5534,0.4079 -3.2321,1.186 -4.5085,2.6625 l -0.038,0.0431 -12.0787,14.6121 6e-4,5e-4 c -0.0496,0.0595 -0.0896,0.1253 -0.1205,0.1942 V 141.534 h -0.003 c 0.0119,-0.6378 0.2809,-1.216 0.7072,-1.6344 0.4264,-0.4184 1.0157,-0.6772 1.6668,-0.6772 h 0.6353 v -0.003 c 0.4555,0 0.8291,-0.3654 0.8362,-0.8229 l 0.007,-0.4269 c 0.003,-0.0289 0.005,-0.0584 0.005,-0.0879 0,-0.4637 -0.3759,-0.8396 -0.8393,-0.8396 h -10.9755 v 0.003 h -0.0133 c -0.4618,0.007 -0.83,0.3878 -0.8229,0.8495 l 0.007,0.4283 -0.002,0.0598 c 0,0.4638 0.3761,0.8397 0.8396,0.8397 h 0.635 c 0.6497,0 1.2364,0.2579 1.6619,0.6752 0.4153,0.4085 0.6823,0.9672 0.7101,1.5874 l -0.001,0.049 v 27.8277 h 0.003 c -0.0204,0.6333 -0.29,1.2036 -0.714,1.6158 -0.4258,0.4153 -1.0117,0.671 -1.6594,0.671 h -0.635 v 0.003 c -0.4555,0 -0.8291,0.3653 -0.8362,0.8228 l -0.007,0.4264 c -0.003,0.0292 -0.005,0.0587 -0.005,0.0884 0,0.4638 0.3759,0.8396 0.8396,0.8396 h 10.9755 v -0.003 h 0.0133 c 0.4615,-0.007 0.83,-0.3877 0.8229,-0.8495 l -0.007,-0.4272 0.002,-0.0609 c 0,-0.4638 -0.3759,-0.8396 -0.8396,-0.8396 h -0.6353 c -0.6474,0 -1.2328,-0.2552 -1.6585,-0.6687 z m 43.9132,-29.0722 c 1.2322,1.0474 2.0616,2.5696 2.7864,4.3518 0.1154,0.3265 0.4266,0.5612 0.7926,0.5612 h 0.5014 v -0.003 c 0.0933,0 0.1891,-0.0156 0.2824,-0.049 0.4345,-0.1556 0.6604,-0.635 0.5048,-1.0695 l -2.8925,-8.0311 c -0.0944,-0.3603 -0.4223,-0.6259 -0.8121,-0.6259 h -20.7978 v 0.003 h -0.0133 c -0.4615,0.007 -0.83,0.3878 -0.8229,0.8495 l 0.007,0.4283 -0.002,0.0598 c 0,0.4638 0.3759,0.8397 0.8396,0.8397 h 0.6347 c 0.6497,0 1.2365,0.2579 1.6619,0.6752 0.4156,0.4085 0.6826,0.9672 0.7101,1.5874 l -10e-4,0.049 v 27.7943 h 0.003 c -0.015,0.6401 -0.2854,1.2212 -0.7129,1.6415 -0.4255,0.4193 -1.0117,0.6787 -1.6605,0.6787 h -0.6347 v 0.003 c -0.4555,0 -0.8291,0.3653 -0.8362,0.8228 l -0.007,0.4264 c -0.003,0.0292 -0.005,0.0587 -0.005,0.0884 0,0.4638 0.3759,0.8396 0.8393,0.8396 h 10.9755 v -0.003 h 0.0133 c 0.4618,-0.007 0.8303,-0.3877 0.8229,-0.8495 l -0.007,-0.4272 0.002,-0.0609 c 0,-0.4638 -0.3762,-0.8396 -0.8397,-0.8396 h -0.6355 c -0.6494,0 -1.2387,-0.2603 -1.6656,-0.6806 -0.4144,-0.4082 -0.6806,-0.9681 -0.7067,-1.5855 l 0.002,-0.0541 v -29.0693 h 6.3496 c 2.4372,0 4.1043,0.6114 5.3238,1.6486 z m 27.4351,0 c 1.2322,1.0474 2.0616,2.5696 2.7864,4.3518 0.1151,0.3265 0.4264,0.5612 0.7926,0.5612 h 0.5014 v -0.003 c 0.0933,0 0.1891,-0.0156 0.2824,-0.049 0.4345,-0.1556 0.6604,-0.635 0.5048,-1.0695 l -2.8927,-8.0311 c -0.0941,-0.3603 -0.4221,-0.6259 -0.8119,-0.6259 h -20.7978 v 0.003 h -0.0133 c -0.4615,0.007 -0.83,0.3878 -0.8229,0.8495 l 0.007,0.4283 -0.002,0.0598 c 0,0.4638 0.3759,0.8397 0.8393,0.8397 h 0.635 c 0.644,0 1.2265,0.2531 1.6526,0.6624 l 0.017,0.0176 c 0.4156,0.4071 0.6834,0.9646 0.7106,1.5826 l -0.001,0.049 v 28.0871 c 0,0.5386 -0.2593,1.0262 -0.6596,1.3845 -0.445,0.3988 -1.0599,0.6429 -1.7019,0.6429 h -0.6355 c -0.4635,0 -0.8394,0.3758 -0.8394,0.8396 v 0.5014 c 0,0.4638 0.3759,0.8396 0.8394,0.8396 h 14.6534 v -0.003 c 0.9728,0.0117 2.1257,0.1276 3.1688,0.2866 1.0647,0.1624 1.9761,0.3623 2.422,0.5346 0.1156,0.0598 0.2471,0.0936 0.386,0.0936 0.4635,0 0.8397,-0.3759 0.8397,-0.8394 v -1.4632 -0.8442 -4.0206 c 0,-0.4635 -0.3762,-0.8396 -0.8397,-0.8396 h -0.5017 c -0.4635,0 -0.8393,0.3761 -0.8393,0.8396 v 0.8943 c 0,0.5735 -0.2214,1.0922 -0.5811,1.4754 -0.3561,0.3793 -0.8479,0.6305 -1.3941,0.6775 h -9.3858 V 156.794 h 7.6368 v -0.003 c 0.4388,0.0113 0.8371,0.197 1.1254,0.4898 0.288,0.2923 0.4674,0.6948 0.4674,1.1392 v 0.7444 c 0,0.4635 0.3761,0.8396 0.8396,0.8396 h 0.4845 c 0.4634,0 0.8396,-0.3761 0.8396,-0.8396 v -7.9333 c 0,-0.4635 -0.3762,-0.8396 -0.8396,-0.8396 h -0.4845 c -0.4635,0 -0.8396,0.3761 -0.8396,0.8396 v 0.7444 c 0,0.4379 -0.1741,0.8362 -0.455,1.1279 -0.2721,0.2837 -0.6454,0.4697 -1.0562,0.4989 l -0.0238,-6e-4 h -7.6946 v -13.3421 h 6.3575 c 2.4373,0 4.1043,0.6114 5.3238,1.6486 z m 16.3324,22.2616 c 0.2899,-0.5972 0.7336,-1.1749 1.375,-1.6956 l 0.0233,-0.0176 9.3039,-7.3143 -0.002,-0.002 0.002,-10e-4 c 2.9004,-2.2935 4.6632,-5.0363 5.4258,-7.8094 0.6539,-2.3763 0.5734,-4.7736 -0.152,-6.933 -0.7276,-2.1662 -2.1036,-4.0938 -4.0357,-5.5207 -2.1398,-1.5806 -4.9555,-2.5481 -8.3185,-2.5481 -3.8316,0 -6.8791,1.2651 -8.9946,3.2428 -1.1036,1.0324 -1.9503,2.2547 -2.5195,3.5901 -0.5706,1.3382 -0.8662,2.789 -0.8662,4.2738 0,2.9248 1.1412,5.9967 3.5719,8.6244 l 0.004,0.005 c 0.284,0.3657 0.8118,0.4317 1.1775,0.1477 l 0.4515,-0.3512 -8e-4,-0.001 c 0.3625,-0.2815 0.4306,-0.8042 0.1516,-1.1696 -1.6704,-2.1796 -2.44,-4.5286 -2.44,-6.7042 0,-1.302 0.2755,-2.5404 0.7956,-3.638 0.5174,-1.0908 1.2799,-2.0492 2.2561,-2.7975 1.414,-1.0846 3.2899,-1.7377 5.5435,-1.7377 2.2323,0 4.1031,0.646 5.5213,1.7011 1.2762,0.9496 2.1946,2.2368 2.6847,3.6862 0.4912,1.4502 0.553,3.0682 0.1171,4.6749 -0.5106,1.8833 -1.7076,3.7556 -3.6975,5.343 l -0.0199,0.015 -9.0527,7.1138 10e-4,0.002 -10e-4,0.001 c -1.1067,0.8734 -1.8638,1.9097 -2.3672,2.9651 l -0.0363,0.0694 c -0.6486,1.3916 -0.8603,2.8129 -0.8603,3.9325 0,2.4132 0.9623,4.8779 2.8097,6.6507 1.6101,1.5454 3.8823,2.5645 6.7569,2.5645 0.6401,0 1.3949,-0.053 2.1736,-0.1434 0.7608,-0.0891 1.5492,-0.216 2.276,-0.3666 h 1.9031 v -0.003 c 0.4556,0 0.8292,-0.3657 0.8363,-0.8229 l 0.1074,-6.0766 c 0.003,-0.0298 0.005,-0.0593 0.005,-0.089 0,-0.4638 -0.3759,-0.8396 -0.8396,-0.8396 h -0.485 v 0.003 c -0.4553,0 -0.8289,0.3653 -0.8362,0.8229 -0.0227,1.3368 -0.5426,2.3757 -1.3522,3.092 -0.9207,0.8152 -2.2311,1.2393 -3.6379,1.2393 -1.554,0 -2.8537,-0.5341 -3.765,-1.4151 -0.9275,-0.8971 -1.4641,-2.1687 -1.4641,-3.6136 0,-0.7171 0.1343,-1.4544 0.4703,-2.1498"
       style="fill:#1e4d78;fill-opacity:1;fill-rule:nonzero;stroke:none"
       id="path244" /></g></svg>
